<svg width="31" height="31" viewBox="0 0 31 31" fill="none" xmlns="http://www.w3.org/2000/svg">
<mask id="mask0_4_45" style="mask-type:luminance" maskUnits="userSpaceOnUse" x="0" y="0" width="31" height="31">
<path d="M30.5357 12.5593H15.8929V18.3723H24.3214C23.5357 22.0653 20.25 24.1854 15.8929 24.1854C10.75 24.1854 6.60716 20.2188 6.60716 15.2948C6.60716 10.3708 10.75 6.40425 15.8929 6.40425C18.1072 6.40425 20.1071 7.15655 21.6786 8.38755L26.25 4.01064C23.4643 1.68541 19.8929 0.249237 15.8929 0.249237C7.17859 0.249237 0.178589 6.95136 0.178589 15.2948C0.178589 23.6383 7.17859 30.3404 15.8929 30.3404C23.75 30.3404 30.8929 24.8693 30.8929 15.2948C30.8929 14.4058 30.75 13.4483 30.5357 12.5593Z" fill="white"/>
</mask>
<g mask="url(#mask0_4_45)">
<path d="M-1.25 24.1854V6.40424L10.8929 15.2948L-1.25 24.1854Z" fill="#FBBC05"/>
</g>
<mask id="mask1_4_45" style="mask-type:luminance" maskUnits="userSpaceOnUse" x="0" y="0" width="31" height="31">
<path d="M30.5357 12.5593H15.8929V18.3723H24.3214C23.5357 22.0653 20.25 24.1854 15.8929 24.1854C10.75 24.1854 6.60716 20.2188 6.60716 15.2948C6.60716 10.3708 10.75 6.40425 15.8929 6.40425C18.1072 6.40425 20.1071 7.15655 21.6786 8.38755L26.25 4.01064C23.4643 1.68541 19.8929 0.249237 15.8929 0.249237C7.17859 0.249237 0.178589 6.95136 0.178589 15.2948C0.178589 23.6383 7.17859 30.3404 15.8929 30.3404C23.75 30.3404 30.8929 24.8693 30.8929 15.2948C30.8929 14.4058 30.75 13.4483 30.5357 12.5593Z" fill="white"/>
</mask>
<g mask="url(#mask1_4_45)">
<path d="M-1.25 6.40424L10.8929 15.2948L15.8929 11.1231L33.0357 8.45591V-1.11856H-1.25V6.40424Z" fill="#EA4335"/>
</g>
<mask id="mask2_4_45" style="mask-type:luminance" maskUnits="userSpaceOnUse" x="0" y="0" width="31" height="31">
<path d="M30.5357 12.5593H15.8929V18.3723H24.3214C23.5357 22.0653 20.25 24.1854 15.8929 24.1854C10.75 24.1854 6.60716 20.2188 6.60716 15.2948C6.60716 10.3708 10.75 6.40425 15.8929 6.40425C18.1072 6.40425 20.1071 7.15655 21.6786 8.38755L26.25 4.01064C23.4643 1.68541 19.8929 0.249237 15.8929 0.249237C7.17859 0.249237 0.178589 6.95136 0.178589 15.2948C0.178589 23.6383 7.17859 30.3404 15.8929 30.3404C23.75 30.3404 30.8929 24.8693 30.8929 15.2948C30.8929 14.4058 30.75 13.4483 30.5357 12.5593Z" fill="white"/>
</mask>
<g mask="url(#mask2_4_45)">
<path d="M-1.25 24.1854L20.1786 8.45591L25.8214 9.1398L33.0357 -1.11856V31.7082H-1.25V24.1854Z" fill="#34A853"/>
</g>
<mask id="mask3_4_45" style="mask-type:luminance" maskUnits="userSpaceOnUse" x="0" y="0" width="31" height="31">
<path d="M30.5357 12.5593H15.8929V18.3723H24.3214C23.5357 22.0653 20.25 24.1854 15.8929 24.1854C10.75 24.1854 6.60716 20.2188 6.60716 15.2948C6.60716 10.3708 10.75 6.40425 15.8929 6.40425C18.1072 6.40425 20.1071 7.15655 21.6786 8.38755L26.25 4.01064C23.4643 1.68541 19.8929 0.249237 15.8929 0.249237C7.17859 0.249237 0.178589 6.95136 0.178589 15.2948C0.178589 23.6383 7.17859 30.3404 15.8929 30.3404C23.75 30.3404 30.8929 24.8693 30.8929 15.2948C30.8929 14.4058 30.75 13.4483 30.5357 12.5593Z" fill="white"/>
</mask>
<g mask="url(#mask3_4_45)">
<path d="M33.0358 31.7082L10.8929 15.2948L8.03577 13.2431L33.0358 6.40424V31.7082Z" fill="#4285F4"/>
</g>
</svg>
