<?xml version="1.0" standalone="no"?>
<!DOCTYPE svg PUBLIC "-//W3C//DTD SVG 20010904//EN"
 "http://www.w3.org/TR/2001/REC-SVG-20010904/DTD/svg10.dtd">
<svg version="1.0" xmlns="http://www.w3.org/2000/svg"
 width="64.000000pt" height="64.000000pt" viewBox="0 0 64.000000 64.000000"
 preserveAspectRatio="xMidYMid meet">

<g transform="translate(0.000000,64.000000) scale(0.100000,-0.100000)"
fill="#000000" stroke="none">
<path d="M0 320 l0 -320 320 0 320 0 0 320 0 320 -320 0 -320 0 0 -320z m220
289 c26 -10 29 -13 16 -21 -10 -6 -28 -2 -53 11 -29 15 -33 20 -17 21 12 0 36
-5 54 -11z m332 -9 c-37 -23 -48 -24 -57 -10 -7 12 29 28 65 29 24 1 24 0 -8
-19z m-82 -27 c69 -28 110 -85 110 -152 0 -64 -6 -72 -40 -53 -16 9 -32 13
-37 8 -4 -5 -3 -11 3 -13 6 -2 19 -10 30 -17 17 -13 15 -15 -22 -33 -21 -11
-57 -24 -79 -28 -22 -4 -43 -11 -46 -16 -3 -6 -31 12 -63 38 -31 26 -52 49
-46 51 18 6 10 24 -9 19 -10 -2 -25 -1 -32 4 -10 6 -6 9 14 9 15 0 27 5 27 10
0 6 -17 10 -37 10 -50 1 -87 31 -79 64 7 30 60 84 95 98 71 29 143 30 211 1z
m-293 4 l21 -12 -23 -27 c-25 -29 -35 -22 -35 28 0 27 5 29 37 11z m417 -25
c-9 -37 -11 -38 -34 -17 -26 23 -25 34 3 44 30 12 38 5 31 -27z m-454 -117
c17 -20 -66 -121 -87 -104 -21 18 -15 42 23 82 39 41 46 44 64 22z m155 -127
c45 -39 74 -71 74 -83 1 -28 20 -45 50 -45 13 0 33 -7 43 -16 17 -16 16 -18
-14 -52 -19 -22 -26 -38 -19 -40 6 -2 21 8 32 22 23 29 39 26 39 -6 0 -45 -69
-81 -84 -43 -3 8 -12 12 -20 9 -14 -5 -196 141 -196 157 0 4 5 11 10 14 19 12
11 63 -10 70 -11 3 -24 3 -30 0 -18 -11 -10 7 18 40 15 19 28 34 30 34 2 1 37
-27 77 -61z m-95 -52 c0 -7 -9 -21 -20 -31 -18 -16 -20 -16 -26 -1 -4 10 1 25
11 36 18 20 35 18 35 -4z m298 -3 c-4 -19 -39 -39 -78 -45 -40 -5 -30 22 13
37 21 7 41 16 44 19 12 12 24 5 21 -11z m-282 -99 c18 -14 18 -15 -5 -4 -13 7
-38 10 -56 8 -19 -2 -31 0 -29 4 9 14 69 9 90 -8z m97 -100 c-3 -8 -9 -14 -13
-14 -14 0 -22 20 -16 37 5 12 9 13 21 3 7 -6 11 -18 8 -26z"/>
<path d="M297 444 c-8 -8 1 -24 14 -24 5 0 9 7 9 15 0 15 -12 20 -23 9z"/>
<path d="M470 435 c0 -8 5 -15 10 -15 6 0 10 7 10 15 0 8 -4 15 -10 15 -5 0
-10 -7 -10 -15z"/>
<path d="M363 426 c4 -13 56 -15 60 -2 1 5 -13 10 -31 11 -21 2 -32 -1 -29 -9z"/>
<path d="M510 400 c0 -5 14 -10 30 -10 17 0 30 5 30 10 0 6 -13 10 -30 10 -16
0 -30 -4 -30 -10z"/>
</g>
</svg>
